<svg version="1.1" id="layer" xmlns="http://www.w3.org/2000/svg" xmlns:xlink="http://www.w3.org/1999/xlink" x="0px"
y="0px" width="387.475px" height="53.33px" viewBox="0 0 387.475 53.33" style="enable-background:new 0 0 387.475 53.33;"
xml:space="preserve">
<g>
<path d="M11.12,27.531v12.658c0,5.029,0.208,7.966,0.623,8.813c0.415,0.846,1.471,1.269,3.169,1.269h2.009v2.322
   c-3.584-0.172-6.442-0.258-8.573-0.258c-2.15,0-4.933,0.086-8.347,0.258v-2.322h2.264c1.622,0,2.617-0.405,2.985-1.215
   c0.368-0.811,0.552-3.769,0.552-8.875V12.376c0-4.984-0.203-7.881-0.608-8.691C4.786,2.875,3.735,2.469,2.037,2.469H0V0.147
   c3.131,0.172,5.951,0.258,8.46,0.258L24.73,0c1.698,0,3.301,0.11,4.811,0.332c-0.604,2.629-0.934,6.352-0.991,11.167h-1.811
   c-0.113-2.555-0.34-4.84-0.679-6.855c-2.584-0.884-5.197-1.327-7.838-1.327c-2.302,0-4.556,0.16-6.763,0.479
   C11.233,6.99,11.12,9.89,11.12,12.494v11.72c1.132,0.074,2.245,0.11,3.339,0.11c2.83,0,5.31-0.098,7.441-0.294
   c0.717-0.049,1.203-0.252,1.458-0.608c0.254-0.356,0.467-1.308,0.637-2.856l0.283-2.801h1.783
   c-0.151,4.497-0.227,7.384-0.227,8.661l0.028,8.698h-1.867v-2.838c0-2.26-0.331-3.636-0.991-4.128
   c-0.66-0.491-3.188-0.737-7.583-0.737C14.213,27.42,12.78,27.457,11.12,27.531z"/>
<path d="M54.95,52.592l0.311-6.634l-1.667,2.359c-1.3,1.843-2.623,3.139-3.969,3.888c-1.347,0.749-3.009,1.124-4.987,1.124
   c-1.695,0-3.155-0.467-4.379-1.4c-1.225-0.934-2.114-2.144-2.67-3.63c-0.556-1.486-0.833-3.839-0.833-7.058
   c0-1.671,0.028-3.612,0.085-5.823l0.085-5.934c0-4.152-0.09-6.462-0.269-6.929c-0.18-0.466-0.778-0.7-1.797-0.7h-2.518v-2.027
   c2.573-0.295,4.947-0.909,7.123-1.843l2.355-1.143c0.321,0,0.482,0.308,0.482,0.921l-0.198,3.759
   c-0.264,5.209-0.396,10.049-0.396,14.521c0,4.472,0.141,7.329,0.423,8.569c0.282,1.241,0.875,2.273,1.779,3.096
   c0.904,0.824,2.005,1.235,3.304,1.235c1.751,0,3.355-0.737,4.814-2.211s2.414-2.96,2.866-4.459c0.245-0.86,0.367-3.452,0.367-7.776
   c0-7.272-0.104-11.229-0.311-11.868c-0.189-0.516-1.038-0.774-2.547-0.774h-2.235v-2.027c1.942-0.295,3.593-0.639,4.952-1.032
   c1.358-0.393,2.792-0.982,4.301-1.769c0.188-0.123,0.358-0.184,0.509-0.184c0.32,0,0.481,0.234,0.481,0.7l-0.113,3.428
   c-0.283,8.403-0.424,15.799-0.424,22.187c0,3.587,0.142,5.639,0.424,6.155c0.415,0.762,1.311,1.143,2.688,1.143h1.641v2.137
   c-2.358-0.172-4.357-0.258-5.999-0.258C57.401,52.334,56.176,52.42,54.95,52.592z"/>
<path d="M76.851,25.317c0.756-0.933,1.579-2.161,2.468-3.685c1.059-1.793,2.042-3.021,2.95-3.685
   c0.908-0.663,1.862-0.995,2.865-0.995c1.04,0,1.834,0.16,2.383,0.479c0.265,0.147,0.397,0.381,0.397,0.7l-0.028,0.369
   c-0.3,1.99-0.47,4.779-0.51,8.366h-1.273c-0.433-1.253-0.945-2.138-1.537-2.654c-0.593-0.516-1.303-0.774-2.13-0.774
   c-1.11,0-2.139,0.491-3.089,1.473c-0.95,0.981-1.585,2.355-1.904,4.122c-0.32,1.767-0.479,5.238-0.479,10.416
   c0,3.411,0.104,6.281,0.312,8.612c0.075,0.859,0.264,1.399,0.566,1.62c0.716,0.515,1.773,0.773,3.169,0.773h1.698v2.137
   c-2.886-0.172-5.622-0.258-8.206-0.258c-2.509,0-4.99,0.086-7.442,0.258v-2.137l2.716-0.295c0.962-0.098,1.571-0.332,1.825-0.7
   c0.255-0.369,0.419-1.56,0.495-3.575c0.132-3.538,0.198-7.74,0.198-12.604c0-5.921-0.18-9.398-0.538-10.43
   c-0.246-0.663-1.019-0.995-2.32-0.995H67.06v-2.138c1.83-0.27,3.461-0.62,4.895-1.05c1.434-0.429,2.707-0.977,3.82-1.64
   c0.264-0.171,0.481-0.258,0.651-0.258c0.208,0,0.349,0.074,0.425,0.222c0.075,0.148,0.113,0.481,0.113,1L76.851,25.317z"/>
<path d="M99.231,23.993l4.279-4.938c0.51-0.59,1.049-1.02,1.616-1.29c1.247-0.54,2.494-0.811,3.74-0.811
   c2.021,0,3.769,0.534,5.243,1.603s2.531,2.457,3.174,4.165c0.642,1.708,0.963,4.38,0.963,8.016l-0.113,11.609
   c0,4.005,0.131,6.315,0.394,6.929c0.356,0.787,1.05,1.18,2.081,1.18h2.024v2.137c-2.013-0.172-3.752-0.258-5.22-0.258
   c-1.43,0-2.962,0.086-4.599,0.258c0.358-4.791,0.538-11.265,0.538-19.422c0-3.292-0.223-5.626-0.667-7.003
   c-0.444-1.375-1.191-2.481-2.24-3.317c-1.049-0.835-2.311-1.253-3.785-1.253c-1.833,0-3.388,0.603-4.664,1.806
   c-1.276,1.205-2.065,2.531-2.367,3.98c-0.189,0.958-0.284,3.464-0.284,7.519c0,4.497,0.028,8.674,0.085,12.531
   c0.019,1.155,0.152,1.88,0.398,2.175c0.474,0.565,1.252,0.848,2.334,0.848h2.021v2.137c-3.194-0.172-5.736-0.258-7.626-0.258
   c-2.004,0-4.281,0.086-6.833,0.258v-2.137h2.037c1.396,0,2.211-0.423,2.448-1.27c0.235-0.847,0.354-5.944,0.354-15.294
   c0-4.196-0.038-7.484-0.113-9.864c-0.038-0.785-0.188-1.325-0.453-1.62c-0.264-0.294-1.009-0.441-2.235-0.441h-2.037v-2.138
   c1.617-0.245,3.065-0.577,4.345-0.995c1.278-0.417,2.717-1.056,4.316-1.917c0.169-0.098,0.329-0.147,0.479-0.147
   c0.301,0,0.452,0.283,0.452,0.848l-0.028,1.4L99.231,23.993z"/>
<path d="M133.469,16.806l0.679,0.553c-0.132,1.843-0.217,3.87-0.254,6.081c-0.132,7.175-0.198,12.47-0.198,15.885
   c0,3.194,0.085,5.921,0.255,8.182c0.075,0.885,0.254,1.499,0.538,1.843c0.283,0.344,0.962,0.603,2.037,0.774l1.924,0.332v2.137
   c-2.754-0.172-5.263-0.258-7.527-0.258c-2.226,0-4.471,0.086-6.734,0.258v-2.137l2.434-0.333c0.943-0.099,1.523-0.327,1.74-0.684
   c0.216-0.357,0.354-1.546,0.41-3.566c0.094-3.128,0.142-7.439,0.142-12.933c0-3.818-0.047-6.762-0.142-8.832
   c-0.038-0.764-0.203-1.305-0.495-1.625c-0.292-0.32-0.948-0.48-1.966-0.48h-2.123v-2.138c2.301-0.437,3.994-0.837,5.079-1.201
   C130.352,18.3,131.752,17.68,133.469,16.806z M131.206,0.479c0.867,0,1.613,0.412,2.235,1.235c0.622,0.823,0.934,1.812,0.934,2.967
   c0,1.155-0.312,2.138-0.934,2.948c-0.623,0.811-1.368,1.216-2.235,1.216c-0.887,0-1.641-0.405-2.264-1.216
   c-0.623-0.811-0.934-1.793-0.934-2.948c0-1.155,0.312-2.144,0.934-2.967S130.318,0.479,131.206,0.479z"/>
<path d="M150.135,23.624v14.469c0,3.765,0.094,6.176,0.283,7.234c0.188,1.059,0.57,1.883,1.146,2.474
   c0.575,0.591,1.306,0.886,2.193,0.886c0.547,0,1.08-0.141,1.599-0.424c0.519-0.282,1.033-0.706,1.542-1.271l0.82,1.282l-2.757,4.21
   c-0.607,0.27-1.194,0.479-1.763,0.626c-0.569,0.147-1.118,0.221-1.648,0.221c-1.402,0-2.587-0.326-3.553-0.977
   c-0.966-0.651-1.667-1.499-2.104-2.543s-0.653-2.623-0.653-4.736l0.113-7.113V23.956c-1.453,0-2.953,0.086-4.499,0.258v-1.585
   c1.622-0.811,3.122-1.658,4.499-2.543c-0.019-3.513-0.095-7.321-0.227-11.425c2.199-1.204,3.782-2.175,4.75-2.912l0.74,0.737
   c-0.151,1.917-0.311,6.45-0.481,13.6c2.301,0,4.178-0.037,5.631-0.11l2.264-0.147l-0.312,3.796l-1.16-0.037l-5.433,0.037H150.135z"
   />
<path d="M182.278,52.592l0.311-6.634l-1.667,2.359c-1.3,1.843-2.623,3.139-3.969,3.888c-1.347,0.749-3.009,1.124-4.987,1.124
   c-1.695,0-3.155-0.467-4.379-1.4c-1.225-0.934-2.114-2.144-2.67-3.63c-0.556-1.486-0.833-3.839-0.833-7.058
   c0-1.671,0.028-3.612,0.085-5.823l0.085-5.934c0-4.152-0.09-6.462-0.269-6.929c-0.18-0.466-0.778-0.7-1.797-0.7h-2.518v-2.027
   c2.573-0.295,4.947-0.909,7.123-1.843l2.355-1.143c0.321,0,0.482,0.308,0.482,0.921l-0.198,3.759
   c-0.264,5.209-0.396,10.049-0.396,14.521c0,4.472,0.141,7.329,0.423,8.569c0.282,1.241,0.875,2.273,1.779,3.096
   c0.904,0.824,2.005,1.235,3.304,1.235c1.751,0,3.355-0.737,4.814-2.211s2.414-2.96,2.866-4.459c0.245-0.86,0.367-3.452,0.367-7.776
   c0-7.272-0.104-11.229-0.311-11.868c-0.189-0.516-1.038-0.774-2.547-0.774h-2.235v-2.027c1.942-0.295,3.593-0.639,4.952-1.032
   c1.358-0.393,2.792-0.982,4.301-1.769c0.188-0.123,0.358-0.184,0.509-0.184c0.32,0,0.481,0.234,0.481,0.7l-0.113,3.428
   c-0.283,8.403-0.424,15.799-0.424,22.187c0,3.587,0.142,5.639,0.424,6.155c0.415,0.762,1.311,1.143,2.688,1.143h1.641v2.137
   c-2.358-0.172-4.357-0.258-5.999-0.258C184.73,52.334,183.504,52.42,182.278,52.592z"/>
<path d="M204.179,25.317c0.756-0.933,1.579-2.161,2.468-3.685c1.059-1.793,2.042-3.021,2.95-3.685
   c0.908-0.663,1.862-0.995,2.865-0.995c1.04,0,1.834,0.16,2.383,0.479c0.265,0.147,0.397,0.381,0.397,0.7l-0.028,0.369
   c-0.3,1.99-0.47,4.779-0.51,8.366h-1.273c-0.433-1.253-0.945-2.138-1.537-2.654c-0.593-0.516-1.303-0.774-2.13-0.774
   c-1.11,0-2.139,0.491-3.089,1.473c-0.95,0.981-1.585,2.355-1.904,4.122c-0.32,1.767-0.479,5.238-0.479,10.416
   c0,3.411,0.104,6.281,0.312,8.612c0.075,0.859,0.264,1.399,0.566,1.62c0.716,0.515,1.773,0.773,3.169,0.773h1.698v2.137
   c-2.886-0.172-5.622-0.258-8.206-0.258c-2.509,0-4.99,0.086-7.442,0.258v-2.137l2.716-0.295c0.962-0.098,1.571-0.332,1.825-0.7
   c0.255-0.369,0.419-1.56,0.495-3.575c0.132-3.538,0.198-7.74,0.198-12.604c0-5.921-0.18-9.398-0.538-10.43
   c-0.246-0.663-1.019-0.995-2.32-0.995h-2.377v-2.138c1.83-0.27,3.461-0.62,4.895-1.05c1.434-0.429,2.707-0.977,3.82-1.64
   c0.264-0.171,0.481-0.258,0.651-0.258c0.208,0,0.349,0.074,0.425,0.222c0.075,0.148,0.113,0.481,0.113,1L204.179,25.317z"/>
<path d="M223.363,34.754c0.094,4.841,1.045,8.514,2.854,11.02c1.808,2.506,4.181,3.759,7.119,3.759
   c1.319,0,2.627-0.282,3.927-0.848c1.299-0.565,2.589-1.413,3.871-2.543l0.48,0.553l-0.905,3.096
   c-1.566,1.179-3.179,2.064-4.838,2.653c-1.66,0.59-3.367,0.885-5.122,0.885c-3.83,0-6.918-1.579-9.267-4.736
   c-2.349-3.157-3.523-7.438-3.523-12.844c0-4.128,0.66-7.703,1.98-10.725c0.868-1.99,2.471-3.833,4.811-5.528
   c2.339-1.695,4.612-2.543,6.819-2.543c3.339,0,5.985,1.278,7.937,3.833c1.952,2.556,2.929,6.131,2.929,10.725l-0.057,2.174
   c-1.243,0.394-2.43,0.651-3.56,0.774c-2.016,0.197-4.813,0.295-8.391,0.295H223.363z M223.419,31.99
   c2.924,0.172,6.149,0.258,9.677,0.258c1.415,0,2.782-0.086,4.103-0.258v-2.064c0-2.162-0.33-4.213-0.99-6.155
   c-0.415-1.204-1.142-2.205-2.179-3.003c-1.038-0.798-2.235-1.198-3.594-1.198c-2.113,0-3.801,1.007-5.064,3.022
   C224.108,24.607,223.457,27.74,223.419,31.99z"/>
<path d="M245.688,37.629l-0.368-0.516c0.566-1.867,1.047-3.649,1.443-5.344c2.754,0.172,5.046,0.258,6.876,0.258
   c1.509,0,4.282-0.086,8.319-0.258l0.226,0.553c-0.623,1.867-1.085,3.636-1.386,5.307c-2.585-0.221-4.961-0.332-7.13-0.332
   C251.234,37.297,248.574,37.408,245.688,37.629z"/>
<path d="M267.702,41.315v2.405c0,1.924,0.132,3.121,0.396,3.589c0.491,0.79,1.448,1.554,2.872,2.294
   c1.424,0.74,2.891,1.11,4.4,1.11c1.943,0,3.527-0.683,4.754-2.048c1.225-1.365,1.838-2.995,1.838-4.889
   c0-1.5-0.357-2.706-1.074-3.616s-2.085-1.636-4.103-2.177c-3.754-0.984-6.235-1.845-7.442-2.583
   c-1.208-0.738-2.113-1.721-2.716-2.951c-0.604-1.229-0.905-2.717-0.905-4.464c0-3.271,0.911-5.928,2.734-7.969
   c1.823-2.041,4.407-3.062,7.75-3.062c2.645,0,5.281,0.688,7.906,2.063c-0.162,1.671-0.293,4.472-0.395,8.403h-1.699
   c-0.037-2.162-0.217-3.587-0.535-4.275c-0.434-0.909-1.225-1.732-2.372-2.469c-1.148-0.737-2.372-1.105-3.67-1.105
   c-1.713,0-3.082,0.572-4.107,1.716c-1.025,1.144-1.539,2.577-1.539,4.299c0,1.648,0.406,2.89,1.217,3.727
   c0.811,0.861,3.056,1.771,6.734,2.73c2.717,0.714,4.508,1.377,5.375,1.991c0.867,0.614,1.566,1.547,2.094,2.799
   c0.529,1.252,0.793,2.688,0.793,4.309c0,3.315-1.09,6.174-3.268,8.581c-2.18,2.406-5.089,3.609-8.729,3.609
   c-2.32,0-4.923-0.473-7.81-1.417c-0.509-0.169-0.764-0.427-0.764-0.772l0.085-0.517c0.075-0.369,0.142-1.021,0.198-1.958
   c0.169-2.389,0.254-4.248,0.254-5.578l-0.028-1.773H267.702z"/>
<path d="M298.486,23.624v14.469c0,3.765,0.095,6.176,0.283,7.234c0.188,1.059,0.57,1.883,1.146,2.474
   c0.575,0.591,1.306,0.886,2.192,0.886c0.547,0,1.08-0.141,1.599-0.424c0.519-0.282,1.033-0.706,1.542-1.271l0.821,1.282
   l-2.758,4.21c-0.606,0.27-1.193,0.479-1.763,0.626c-0.568,0.147-1.117,0.221-1.647,0.221c-1.402,0-2.587-0.326-3.554-0.977
   c-0.967-0.651-1.668-1.499-2.104-2.543s-0.653-2.623-0.653-4.736l0.113-7.113V23.956c-1.453,0-2.953,0.086-4.499,0.258v-1.585
   c1.622-0.811,3.122-1.658,4.499-2.543c-0.02-3.513-0.095-7.321-0.227-11.425c2.199-1.204,3.782-2.175,4.75-2.912l0.739,0.737
   c-0.151,1.917-0.312,6.45-0.481,13.6c2.302,0,4.179-0.037,5.631-0.11l2.264-0.147l-0.311,3.796l-1.16-0.037l-5.433,0.037H298.486z"
   />
<path d="M308.899,34.902c0-3.391,0.604-6.456,1.812-9.195c1.206-2.739,2.899-4.883,5.078-6.431s4.655-2.322,7.428-2.322
   c4.019,0,7.234,1.548,9.648,4.644c2.415,3.096,3.622,7.224,3.622,12.383c0,6.094-1.575,10.934-4.726,14.521
   c-2.811,3.219-6.178,4.828-10.101,4.828c-3.773,0-6.844-1.652-9.211-4.957C310.083,45.068,308.899,40.578,308.899,34.902z
    M314.219,32.3c0,5.067,0.797,9.403,2.392,13.007c1.594,3.604,3.891,5.406,6.89,5.406c2.282,0,4.126-1.132,5.531-3.395
   c1.405-2.263,2.108-5.695,2.108-10.295c0-3.714-0.415-6.931-1.245-9.649c-0.83-2.718-1.924-4.698-3.282-5.94
   c-1.358-1.242-2.877-1.863-4.556-1.863c-1.49,0-2.834,0.492-4.032,1.476c-1.198,0.984-2.079,2.3-2.646,3.948
   C314.605,27.233,314.219,29.668,314.219,32.3z"/>
<path d="M349.22,25.317c0.757-0.933,1.579-2.161,2.468-3.685c1.06-1.793,2.043-3.021,2.95-3.685
   c0.908-0.663,1.863-0.995,2.866-0.995c1.039,0,1.834,0.16,2.383,0.479c0.264,0.147,0.396,0.381,0.396,0.7l-0.028,0.369
   c-0.3,1.99-0.47,4.779-0.509,8.366h-1.273c-0.433-1.253-0.945-2.138-1.537-2.654c-0.593-0.516-1.303-0.774-2.13-0.774
   c-1.109,0-2.14,0.491-3.089,1.473c-0.95,0.981-1.585,2.355-1.904,4.122c-0.319,1.767-0.479,5.238-0.479,10.416
   c0,3.411,0.104,6.281,0.312,8.612c0.075,0.859,0.264,1.399,0.565,1.62c0.717,0.515,1.773,0.773,3.169,0.773h1.698v2.137
   c-2.886-0.172-5.621-0.258-8.206-0.258c-2.509,0-4.989,0.086-7.441,0.258v-2.137l2.717-0.295c0.962-0.098,1.57-0.332,1.825-0.7
   c0.254-0.369,0.419-1.56,0.495-3.575c0.131-3.538,0.197-7.74,0.197-12.604c0-5.921-0.179-9.398-0.537-10.43
   c-0.245-0.663-1.019-0.995-2.32-0.995h-2.377v-2.138c1.83-0.27,3.462-0.62,4.896-1.05c1.433-0.429,2.706-0.977,3.819-1.64
   c0.265-0.171,0.481-0.258,0.651-0.258c0.207,0,0.349,0.074,0.424,0.222s0.113,0.481,0.113,1L349.22,25.317z"/>
<path d="M368.404,34.754c0.094,4.841,1.045,8.514,2.854,11.02c1.808,2.506,4.181,3.759,7.119,3.759
   c1.318,0,2.627-0.282,3.927-0.848c1.299-0.565,2.589-1.413,3.87-2.543l0.48,0.553l-0.905,3.096
   c-1.566,1.179-3.179,2.064-4.839,2.653c-1.66,0.59-3.367,0.885-5.121,0.885c-3.83,0-6.918-1.579-9.267-4.736
   C364.174,45.437,363,41.155,363,35.75c0-4.128,0.659-7.703,1.98-10.725c0.867-1.99,2.471-3.833,4.81-5.528s4.612-2.543,6.819-2.543
   c3.339,0,5.984,1.278,7.937,3.833c1.953,2.556,2.929,6.131,2.929,10.725l-0.057,2.174c-1.243,0.394-2.43,0.651-3.56,0.774
   c-2.016,0.197-4.812,0.295-8.392,0.295H368.404z M368.461,31.99c2.923,0.172,6.149,0.258,9.677,0.258
   c1.415,0,2.782-0.086,4.103-0.258v-2.064c0-2.162-0.33-4.213-0.99-6.155c-0.415-1.204-1.142-2.205-2.179-3.003
   c-1.038-0.798-2.235-1.198-3.594-1.198c-2.112,0-3.801,1.007-5.064,3.022C369.148,24.607,368.498,27.74,368.461,31.99z"/>
</g>
</svg>
