<?xml version="1.0" encoding="utf-8"?>
<!-- Generator: Adobe Illustrator 26.4.1, SVG Export Plug-In . SVG Version: 6.00 Build 0)  -->
<svg version="1.1" id="レイヤー_1" xmlns="http://www.w3.org/2000/svg" xmlns:xlink="http://www.w3.org/1999/xlink" x="0px"
	 y="0px" viewBox="0 0 1280 1024" style="enable-background:new 0 0 1280 1024;" xml:space="preserve">
<style type="text/css">
	.st0{fill:#003D1D;}
	.st1{fill:#FFFFFF;}
	.st2{fill:none;}
	.st3{font-family:'Jun101Pro-Light-90ms-RKSJ-H';}
	.st4{font-size:38px;}
	.st5{clip-path:url(#SVGID_00000156579268150439047540000015361979531399379590_);}
	.st6{clip-path:url(#SVGID_00000148649787912622708800000005311550691379693726_);}
	.st7{clip-path:url(#SVGID_00000085214497457759977120000016852426907211683978_);}
	.st8{clip-path:url(#SVGID_00000132773876034870986220000013670486700840567220_);}
	.st9{clip-path:url(#SVGID_00000167355495762324014020000015750135882749566138_);}
	.st10{clip-path:url(#SVGID_00000020371306722947333520000002671922133449984129_);}
	.st11{clip-path:url(#SVGID_00000116955687846005977630000017988552260275108507_);}
	.st12{clip-path:url(#SVGID_00000168836410150721714730000012476686530026839203_);}
	.st13{clip-path:url(#SVGID_00000016065791870607941230000001174200585604229273_);}
	.st14{clip-path:url(#SVGID_00000134936087670755274530000004265016858139931050_);}
	.st15{clip-path:url(#SVGID_00000145778330411157665820000012874527880257046456_);}
	.st16{clip-path:url(#SVGID_00000155856855290898235480000007266014222583974839_);}
	.st17{clip-path:url(#SVGID_00000064347901963276630000000011356175788844198310_);}
	.st18{clip-path:url(#SVGID_00000010279134499814179700000003767035689926796442_);}
	.st19{clip-path:url(#SVGID_00000132806213842611346240000014035810897858462884_);}
	.st20{clip-path:url(#SVGID_00000140728732856264440690000015624614381022725554_);}
	.st21{clip-path:url(#SVGID_00000015319509723204703620000013237995860797118358_);}
	.st22{clip-path:url(#SVGID_00000023257206715490880300000007895908050704194468_);}
	.st23{clip-path:url(#SVGID_00000069389975390412282580000010996439619605227917_);}
	.st24{clip-path:url(#SVGID_00000135692002568229097190000012905186105640327087_);}
	.st25{clip-path:url(#SVGID_00000112631495252138006270000013986427897193003186_);}
	.st26{clip-path:url(#SVGID_00000024692612534811497320000004569924491090059697_);}
	.st27{fill:#EACC90;stroke:#000000;stroke-width:1;stroke-miterlimit:9.9999;}
	.st28{fill:#EACC90;}
	.st29{font-size:57.5161px;}
</style>
<g>
	<path class="st0" d="M653.31,792.26c-74.73,0-144.98-29.1-197.82-81.94c-52.84-52.84-81.94-123.09-81.94-197.82
		c0-74.73,29.1-144.98,81.94-197.82c52.84-52.84,123.09-81.94,197.82-81.94c74.73,0,144.98,29.1,197.82,81.94
		c52.84,52.84,81.94,123.09,81.94,197.82c0,74.73-29.1,144.98-81.94,197.82C798.29,763.16,728.04,792.26,653.31,792.26z"/>
	<path class="st1" d="M653.31,234.24c37.57,0,74.01,7.36,108.31,21.87c33.13,14.01,62.89,34.08,88.45,59.63
		c25.56,25.56,45.62,55.31,59.63,88.45c14.51,34.3,21.87,70.74,21.87,108.31s-7.36,74.01-21.87,108.31
		c-14.01,33.13-34.08,62.89-59.63,88.45c-25.56,25.56-55.31,45.62-88.45,59.63c-34.3,14.51-70.74,21.87-108.31,21.87
		S579.3,783.4,545,768.89c-33.13-14.01-62.89-34.08-88.45-59.63c-25.56-25.56-45.62-55.31-59.63-88.45
		c-14.51-34.3-21.87-70.74-21.87-108.31s7.36-74.01,21.87-108.31c14.01-33.13,34.08-62.89,59.63-88.45s55.31-45.62,88.45-59.63
		C579.3,241.6,615.74,234.24,653.31,234.24 M653.31,231.24c-155.33,0-281.26,125.92-281.26,281.26s125.92,281.26,281.26,281.26
		S934.57,667.83,934.57,512.5S808.64,231.24,653.31,231.24L653.31,231.24z"/>
</g>
<g>
	<path class="st0" d="M653.31,778c-70.92,0-137.59-27.62-187.74-77.76c-50.15-50.15-77.76-116.82-77.76-187.74
		c0-70.92,27.62-137.59,77.76-187.74S582.39,247,653.31,247s137.59,27.62,187.74,77.76c50.15,50.15,77.76,116.82,77.76,187.74
		c0,70.92-27.62,137.59-77.76,187.74C790.9,750.38,724.23,778,653.31,778z"/>
	<path class="st1" d="M653.31,248.5c35.64,0,70.21,6.98,102.76,20.75c31.44,13.3,59.67,32.33,83.92,56.58
		c24.25,24.25,43.28,52.48,56.58,83.92c13.77,32.55,20.75,67.12,20.75,102.76s-6.98,70.21-20.75,102.76
		c-13.3,31.44-32.33,59.67-56.58,83.92c-24.25,24.25-52.48,43.28-83.92,56.58c-32.55,13.77-67.12,20.75-102.76,20.75
		s-70.21-6.98-102.76-20.75c-31.44-13.3-59.67-32.33-83.92-56.58c-24.25-24.25-43.28-52.48-56.58-83.92
		c-13.77-32.55-20.75-67.12-20.75-102.76s6.98-70.21,20.75-102.76c13.3-31.44,32.33-59.67,56.58-83.92
		c24.25-24.25,52.48-43.28,83.92-56.58C583.09,255.48,617.67,248.5,653.31,248.5 M653.31,245.5c-147.46,0-267,119.54-267,267
		s119.54,267,267,267s267-119.54,267-267S800.77,245.5,653.31,245.5L653.31,245.5z"/>
</g>
<path id="SVGID_x5F_1_x5F_" class="st2" d="M894.8,398.62c62.9,133.37,5.76,292.48-127.61,355.38s-292.48,5.76-355.38-127.61
	s-5.76-292.48,127.61-355.38S831.91,265.24,894.8,398.62z"/>
<text><textPath  xlink:href="#SVGID_x5F_1_x5F_" startOffset="80.1595%">
<tspan  class="st28 st3" style="font-size:54px; letter-spacing:365;">KAZAHAYA WISKY</tspan></textPath>
</text>
<path id="SVGID_x5F_00000118360854597810458020000002843379758837456021_x5F_" class="st2" d="M843.8,327.41
	c-103.33-105.21-272.37-106.73-377.58-3.41s-106.73,272.37-3.41,377.58s272.37,106.73,377.58,3.41S947.13,432.62,843.8,327.41z"/>
<text><textPath  xlink:href="#SVGID_x5F_00000118360854597810458020000002843379758837456021_x5F_" startOffset="53.5522%">
<tspan  class="st28 st3" style="font-size:54px; letter-spacing:252;">KAZAHAYA WISKY</tspan></textPath>
</text>
<g>
	<defs>
		
			<rect id="SVGID_00000037687126064418371490000008858838700573795998_" x="582.95" y="442.15" transform="matrix(0.7071 -0.7071 0.7071 0.7071 -171.0424 612.0671)" width="140.71" height="140.71"/>
	</defs>
	<defs>
		<rect id="SVGID_00000054961850273911350540000014784459003485572513_" x="628.8" y="438.73" width="49" height="49"/>
	</defs>
	<defs>
		<path id="SVGID_00000137123920845575240460000017743538685725994911_" d="M676.8,438.73v48h-48v-48H676.8 M677.8,437.73h-50v50h50
			V437.73L677.8,437.73z"/>
	</defs>
	<defs>
		
			<text id="SVGID_00000098932748730073935870000007472254012410829757_" transform="matrix(1 0 0 1 639.0359 478.1337)" class="st3 st4">K</text>
	</defs>
	<defs>
		<rect id="SVGID_00000012460790133347359500000017591697634624118938_" x="678.8" y="487.73" width="49" height="49"/>
	</defs>
	<defs>
		<path id="SVGID_00000075127893339546856160000001890803847038209178_" d="M726.8,488.73v48h-48v-48H726.8 M727.8,487.73h-50v50h50
			V487.73L727.8,487.73z"/>
	</defs>
	<defs>
		
			<text id="SVGID_00000160895553855131471270000013221321465019809170_" transform="matrix(1 0 0 1 690.045 528.5708)" class="st3 st4">Z</text>
	</defs>
	<defs>
		<rect id="SVGID_00000180324338076259845370000001999091081112977332_" x="628.8" y="536.73" width="49" height="49"/>
	</defs>
	<defs>
		<path id="SVGID_00000076584280630473826900000002169521113436437679_" d="M676.8,536.73v48h-48v-48H676.8 M677.8,535.73h-50v50h50
			V535.73L677.8,535.73z"/>
	</defs>
	<defs>
		
			<text id="SVGID_00000010281297394697215680000004415981981202543523_" transform="matrix(1 0 0 1 638.4932 575.8048)" class="st3 st4">H</text>
	</defs>
	<defs>
		<rect id="SVGID_00000050642238815949370370000013841047376156189351_" x="628.8" y="536.73" width="49" height="49"/>
	</defs>
	<defs>
		<path id="SVGID_00000173850719519442112710000012926984579459299988_" d="M676.8,536.73v48h-48v-48H676.8 M677.8,535.73h-50v50h50
			V535.73L677.8,535.73z"/>
	</defs>
	<defs>
		
			<text id="SVGID_00000046332385246971141170000007043616468193037451_" transform="matrix(1 0 0 1 638.4932 575.8048)" class="st3 st4">H</text>
	</defs>
	<defs>
		<rect id="SVGID_00000096036798741296387990000007994526802923775885_" x="628.8" y="537.73" width="49" height="49"/>
	</defs>
	<defs>
		<path id="SVGID_00000042000739758619869970000010897563146401119921_" d="M676.8,537.73v48h-48v-48H676.8 M677.8,536.73h-50v50h50
			V536.73L677.8,536.73z"/>
	</defs>
	<defs>
		
			<text id="SVGID_00000098931270183072701380000017775793046305123742_" transform="matrix(1 0 0 1 638.4932 576.8048)" class="st3 st4">H</text>
	</defs>
	<defs>
		<rect id="SVGID_00000004541508827502616680000017821639911921993394_" x="578.8" y="487.73" width="49" height="49"/>
	</defs>
	<defs>
		<path id="SVGID_00000068651730828799111840000011023506460509561482_" d="M627.8,488.73v48h-48v-48H627.8 M628.8,487.73h-50v50h50
			V487.73L628.8,487.73z"/>
	</defs>
	<defs>
		
			<text id="SVGID_00000161595590853735353090000011641189250508805013_" transform="matrix(1 0 0 1 590.045 526.8613)" class="st3 st4">Y</text>
	</defs>
	<defs>
		<rect id="SVGID_00000155828152096099642970000006982613501982668712_" x="628.8" y="487.73" width="49" height="49"/>
	</defs>
	<defs>
		<path id="SVGID_00000127032241789136691100000009783451249017891247_" d="M676.8,488.73v48h-48v-48H676.8 M677.8,487.73h-50v50h50
			V487.73L677.8,487.73z"/>
	</defs>
	<defs>
		
			<text id="SVGID_00000072252619906049547700000013888867269022336938_" transform="matrix(1 0 0 1 639.0981 527.552)" class="st3 st4">A</text>
	</defs>
	<clipPath id="SVGID_00000096767689930074535600000004217590543850401944_">
		<use xlink:href="#SVGID_00000037687126064418371490000008858838700573795998_"  style="overflow:visible;"/>
	</clipPath>
	
		<clipPath id="SVGID_00000056418104443486717230000001868772387134555063_" style="clip-path:url(#SVGID_00000096767689930074535600000004217590543850401944_);">
		<use xlink:href="#SVGID_00000054961850273911350540000014784459003485572513_"  style="overflow:visible;"/>
	</clipPath>
	
		<clipPath id="SVGID_00000090271798298913759630000012462354291096646022_" style="clip-path:url(#SVGID_00000056418104443486717230000001868772387134555063_);">
		<use xlink:href="#SVGID_00000137123920845575240460000017743538685725994911_"  style="overflow:visible;"/>
	</clipPath>
	
		<clipPath id="SVGID_00000129891561886606488100000007998781252425771915_" style="clip-path:url(#SVGID_00000090271798298913759630000012462354291096646022_);">
		
			<use xlink:href="#SVGID_00000098932748730073935870000007472254012410829757_"  style="overflow:visible;enable-background:new    ;"/>
	</clipPath>
	
		<clipPath id="SVGID_00000174566839691028134430000005075492803286549139_" style="clip-path:url(#SVGID_00000129891561886606488100000007998781252425771915_);">
		<use xlink:href="#SVGID_00000012460790133347359500000017591697634624118938_"  style="overflow:visible;"/>
	</clipPath>
	
		<clipPath id="SVGID_00000049212596776092221840000016966277675521741460_" style="clip-path:url(#SVGID_00000174566839691028134430000005075492803286549139_);">
		<use xlink:href="#SVGID_00000075127893339546856160000001890803847038209178_"  style="overflow:visible;"/>
	</clipPath>
	
		<clipPath id="SVGID_00000068675742437407645120000003112168188658906024_" style="clip-path:url(#SVGID_00000049212596776092221840000016966277675521741460_);">
		
			<use xlink:href="#SVGID_00000160895553855131471270000013221321465019809170_"  style="overflow:visible;enable-background:new    ;"/>
	</clipPath>
	
		<clipPath id="SVGID_00000057829878222577370960000002566875572179663265_" style="clip-path:url(#SVGID_00000068675742437407645120000003112168188658906024_);">
		<use xlink:href="#SVGID_00000180324338076259845370000001999091081112977332_"  style="overflow:visible;"/>
	</clipPath>
	
		<clipPath id="SVGID_00000052061888870906660800000005419141095651191961_" style="clip-path:url(#SVGID_00000057829878222577370960000002566875572179663265_);">
		<use xlink:href="#SVGID_00000076584280630473826900000002169521113436437679_"  style="overflow:visible;"/>
	</clipPath>
	
		<clipPath id="SVGID_00000165231202009432797350000013115859462604994470_" style="clip-path:url(#SVGID_00000052061888870906660800000005419141095651191961_);">
		
			<use xlink:href="#SVGID_00000010281297394697215680000004415981981202543523_"  style="overflow:visible;enable-background:new    ;"/>
	</clipPath>
	
		<clipPath id="SVGID_00000121964680529707380960000010160857616821979548_" style="clip-path:url(#SVGID_00000165231202009432797350000013115859462604994470_);">
		<use xlink:href="#SVGID_00000050642238815949370370000013841047376156189351_"  style="overflow:visible;"/>
	</clipPath>
	
		<clipPath id="SVGID_00000157988522682742561960000003809498348388274345_" style="clip-path:url(#SVGID_00000121964680529707380960000010160857616821979548_);">
		<use xlink:href="#SVGID_00000173850719519442112710000012926984579459299988_"  style="overflow:visible;"/>
	</clipPath>
	
		<clipPath id="SVGID_00000065053141285438267670000013199360364645060533_" style="clip-path:url(#SVGID_00000157988522682742561960000003809498348388274345_);">
		
			<use xlink:href="#SVGID_00000046332385246971141170000007043616468193037451_"  style="overflow:visible;enable-background:new    ;"/>
	</clipPath>
	
		<clipPath id="SVGID_00000137128990263488197280000003836927192907890365_" style="clip-path:url(#SVGID_00000065053141285438267670000013199360364645060533_);">
		<use xlink:href="#SVGID_00000096036798741296387990000007994526802923775885_"  style="overflow:visible;"/>
	</clipPath>
	
		<clipPath id="SVGID_00000068659007677277483030000002216322242818355073_" style="clip-path:url(#SVGID_00000137128990263488197280000003836927192907890365_);">
		<use xlink:href="#SVGID_00000042000739758619869970000010897563146401119921_"  style="overflow:visible;"/>
	</clipPath>
	
		<clipPath id="SVGID_00000088119951023544966830000011801580502503887774_" style="clip-path:url(#SVGID_00000068659007677277483030000002216322242818355073_);">
		
			<use xlink:href="#SVGID_00000098931270183072701380000017775793046305123742_"  style="overflow:visible;enable-background:new    ;"/>
	</clipPath>
	
		<clipPath id="SVGID_00000121993952451842129320000007914379256424032944_" style="clip-path:url(#SVGID_00000088119951023544966830000011801580502503887774_);">
		<use xlink:href="#SVGID_00000004541508827502616680000017821639911921993394_"  style="overflow:visible;"/>
	</clipPath>
	
		<clipPath id="SVGID_00000062189922229480125730000005193068556031756928_" style="clip-path:url(#SVGID_00000121993952451842129320000007914379256424032944_);">
		<use xlink:href="#SVGID_00000068651730828799111840000011023506460509561482_"  style="overflow:visible;"/>
	</clipPath>
	
		<clipPath id="SVGID_00000137117449687463887770000015584647483503190971_" style="clip-path:url(#SVGID_00000062189922229480125730000005193068556031756928_);">
		
			<use xlink:href="#SVGID_00000161595590853735353090000011641189250508805013_"  style="overflow:visible;enable-background:new    ;"/>
	</clipPath>
	
		<clipPath id="SVGID_00000173134732829322138900000016440428710449563546_" style="clip-path:url(#SVGID_00000137117449687463887770000015584647483503190971_);">
		<use xlink:href="#SVGID_00000155828152096099642970000006982613501982668712_"  style="overflow:visible;"/>
	</clipPath>
	
		<clipPath id="SVGID_00000059989438380805893160000013011843550680051334_" style="clip-path:url(#SVGID_00000173134732829322138900000016440428710449563546_);">
		<use xlink:href="#SVGID_00000127032241789136691100000009783451249017891247_"  style="overflow:visible;"/>
	</clipPath>
	
		<clipPath id="SVGID_00000020360090099776128140000015774608808933569681_" style="clip-path:url(#SVGID_00000059989438380805893160000013011843550680051334_);">
		
			<use xlink:href="#SVGID_00000072252619906049547700000013888867269022336938_"  style="overflow:visible;enable-background:new    ;"/>
	</clipPath>
	<g style="clip-path:url(#SVGID_00000020360090099776128140000015774608808933569681_);">
		<ellipse transform="matrix(0.7071 -0.7071 0.7071 0.7071 -173.4261 613.0547)" cx="653.31" cy="515.87" rx="189.5" ry="189.5"/>
		<path class="st1" d="M653.31,327.87c25.38,0,50,4.97,73.18,14.77c22.39,9.47,42.49,23.02,59.76,40.29
			c17.27,17.27,30.82,37.37,40.29,59.76c9.8,23.18,14.77,47.8,14.77,73.18s-4.97,50-14.77,73.18
			c-9.47,22.39-23.02,42.49-40.29,59.76c-17.27,17.27-37.37,30.82-59.76,40.29c-23.18,9.8-47.8,14.77-73.18,14.77
			s-50-4.97-73.18-14.77c-22.39-9.47-42.49-23.02-59.76-40.29c-17.27-17.27-30.82-37.37-40.29-59.76
			c-9.8-23.18-14.77-47.8-14.77-73.18s4.97-50,14.77-73.18c9.47-22.39,23.02-42.49,40.29-59.76c17.27-17.27,37.37-30.82,59.76-40.29
			C603.31,332.84,627.93,327.87,653.31,327.87 M653.31,324.87c-105.49,0-191,85.51-191,191c0,105.49,85.51,191,191,191
			s191-85.51,191-191C844.31,410.39,758.8,324.87,653.31,324.87L653.31,324.87z"/>
	</g>
	<g style="clip-path:url(#SVGID_00000020360090099776128140000015774608808933569681_);">
		<ellipse transform="matrix(0.7071 -0.7071 0.7071 0.7071 -171.0423 612.0673)" cx="653.31" cy="512.5" rx="189.5" ry="189.5"/>
		<path class="st1" d="M653.31,324.5c25.38,0,50,4.97,73.18,14.77c22.39,9.47,42.49,23.02,59.76,40.29
			c17.27,17.27,30.82,37.37,40.29,59.76c9.8,23.18,14.77,47.8,14.77,73.18s-4.97,50-14.77,73.18
			c-9.47,22.39-23.02,42.49-40.29,59.76c-17.27,17.27-37.37,30.82-59.76,40.29c-23.18,9.8-47.8,14.77-73.18,14.77
			s-50-4.97-73.18-14.77c-22.39-9.47-42.49-23.02-59.76-40.29c-17.27-17.27-30.82-37.37-40.29-59.76
			c-9.8-23.18-14.77-47.8-14.77-73.18s4.97-50,14.77-73.18c9.47-22.39,23.02-42.49,40.29-59.76c17.27-17.27,37.37-30.82,59.76-40.29
			C603.31,329.47,627.93,324.5,653.31,324.5 M653.31,321.5c-105.49,0-191,85.51-191,191s85.51,191,191,191s191-85.51,191-191
			S758.8,321.5,653.31,321.5L653.31,321.5z"/>
	</g>
</g>
<g>
	
		<rect x="547.92" y="404.92" transform="matrix(0.7071 -0.7071 0.7071 0.7071 -169.947 612.5209)" class="st27" width="212.97" height="212.97"/>
	<g>
		<g>
			<rect x="616.95" y="400.19" class="st0" width="74.17" height="74.17"/>
			<path d="M691.11,400.19v72.65h-72.65v-72.65H691.11 M692.63,398.68h-75.68v75.68h75.68V398.68L692.63,398.68z"/>
		</g>
		<text transform="matrix(1 0 0 1 632.8013 459.3882)" class="st28 st3 st29">K</text>
	</g>
	<g>
		<g>
			<rect x="692.63" y="474.36" class="st0" width="74.17" height="74.17"/>
			<path d="M765.28,475.87v72.65h-72.65v-72.65H765.28 M766.79,474.36h-75.68v75.68h75.68V474.36L766.79,474.36z"/>
		</g>
		<text transform="matrix(1 0 0 1 710.0098 535.7285)" class="st28 st3 st29">Z</text>
	</g>
	<g>
		<g>
			<rect x="616.95" y="547.01" class="st0" width="74.17" height="74.17"/>
			<path d="M691.11,548.53v72.65h-72.65v-72.65H691.11 M692.63,547.01h-75.68v75.68h75.68V547.01L692.63,547.01z"/>
		</g>
		<text transform="matrix(1 0 0 1 631.979 607.2207)" class="st28 st3 st29">H</text>
	</g>
	<g>
		<g>
			<rect x="616.95" y="547.01" class="st0" width="74.17" height="74.17"/>
			<path d="M691.11,548.53v72.65h-72.65v-72.65H691.11 M692.63,547.01h-75.68v75.68h75.68V547.01L692.63,547.01z"/>
		</g>
		<text transform="matrix(1 0 0 1 631.979 607.2207)" class="st28 st3 st29">H</text>
	</g>
	<g>
		<g>
			<rect x="616.95" y="548.53" class="st0" width="74.17" height="74.17"/>
			<path d="M691.11,550.04v72.65h-72.65v-72.65H691.11 M692.63,548.53h-75.68v75.68h75.68V548.53L692.63,548.53z"/>
		</g>
		<text transform="matrix(1 0 0 1 631.979 608.7344)" class="st28 st3 st29">H</text>
	</g>
	<g>
		<g>
			<rect x="541.27" y="474.36" class="st0" width="74.17" height="74.17"/>
			<path d="M615.44,475.87v72.65h-72.65v-72.65H615.44 M616.95,474.36h-75.68v75.68h75.68V474.36L616.95,474.36z"/>
		</g>
		<text transform="matrix(1 0 0 1 558.6489 533.1406)" class="st28 st3 st29">Y</text>
	</g>
	<g>
		<g>
			<rect x="616.95" y="474.36" class="st0" width="74.17" height="74.17"/>
			<path d="M691.11,475.87v72.65h-72.65v-72.65H691.11 M692.63,474.36h-75.68v75.68h75.68V474.36L692.63,474.36z"/>
		</g>
		<text transform="matrix(1 0 0 1 632.894 534.1865)" class="st28 st3 st29">A</text>
	</g>
</g>
</svg>
