<?xml version="1.0" encoding="utf-8"?>
<!-- Generator: Adobe Illustrator 26.4.1, SVG Export Plug-In . SVG Version: 6.00 Build 0)  -->
<svg version="1.1" id="レイヤー_1" xmlns="http://www.w3.org/2000/svg" xmlns:xlink="http://www.w3.org/1999/xlink" x="0px"
	 y="0px" viewBox="0 0 1280 1024" style="enable-background:new 0 0 1280 1024;" xml:space="preserve">
<style type="text/css">
	.st0{fill:none;stroke:#000000;stroke-width:14;stroke-miterlimit:10;}
</style>
<path class="st0" d="M337.75,231.06c15.36,69.9,15.51,142.46,7.9,213.63s-22.83,141.27-38.04,211.21
	c-3.28,15.08-6.56,30.19-11.23,44.9c-13.8,43.55-39.82,83.15-74.32,113.08"/>
<path class="st0" d="M602.29,225.89c-11.11,46.3-49.34,80.59-87.17,109.51c-54.04,41.32-111.44,78.25-171.45,110.3
	c25.6,10.47,45.54,31.1,63.47,52.15c50.13,58.86,90.73,125.22,139.3,185.37c33.22,41.15,73.87,81.4,125.95,90.62
	c-1.43-1.96-2.86-3.93-4.29-5.89"/>
<path class="st0" d="M720.96,212.86c29.41,97.23,113.71,175.8,212.77,198.3"/>
<path class="st0" d="M990.42,209.94c-8.52-5.55-18.56,4.64-22.97,13.8c-24.75,51.43-24.18,110.86-34.6,166.98
	c-7.39,39.78-20.43,78.27-33.46,116.58c-8.83,25.96-17.7,52.01-30.06,76.49c-38.45,76.2-107.39,131.71-174.83,184.02
	c-7.19,5.58-15.74,11.48-24.61,9.46"/>
<path class="st0" d="M656.86,350.87c8.1,17.35,9.39,36.99,10.54,56.1c3.57,59.04,6.83,120.25-14.64,175.36
	c9.07-13.31,22.64-28.38,38.15-23.99c9.41,2.66,15.77,13.3,13.66,22.85"/>
<path class="st0" d="M623.73,657.63c7.05,4.13,15.63,4.83,23.78,4.12c31.06-2.67,57.5-23.6,78.57-46.57
	c2.28,19.5-10.79,37.1-23.14,52.37c-4.8,5.94-9.61,11.88-14.41,17.82c-3.35,4.14-6.74,8.32-10.9,11.66
	c-10.05,8.06-23.42,10.35-36.14,12.36c5.27,2.39,10.88,4.22,16.66,4.49c18.86,0.9,34.24-14.12,47.02-28.02"/>
<path class="st0" d="M537.53,374.19c-1.41,8.62-6.26,16.22-11.03,23.54c-10.98,16.82-22.29,33.71-37.13,47.25"/>
<path class="st0" d="M536.38,365.89c5.21-1.4,9.52,3.98,12.32,8.59c14.11,23.2,30.7,44.88,49.4,64.57"/>
<path class="st0" d="M525.89,419.37c11.3-3.24,22.96-5.22,34.69-5.88"/>
<path class="st0" d="M495.07,464.05c2.55-2.19,6.49-0.83,9.33,0.97c20.27,12.85,24.91,40.27,39.8,59.1
	c0.48,0.61,1.01,1.24,1.74,1.49c1.79,0.62,3.41-1.21,4.42-2.81c6.8-10.72,13.58-21.5,18.9-33.02c6.27-13.58,11.24-29.07,23.73-37.3"
	/>
<path class="st0" d="M530.89,475.14c10.98-3.08,22.1-5.64,33.31-7.67"/>
<path class="st0" d="M744.13,345.88c1.42,9.27,0.19,18.93-3.51,27.55c-1.68,3.92-3.85,7.6-6.01,11.28
	c-5.09,8.65-10.18,17.3-15.27,25.95"/>
<path class="st0" d="M755.5,348.49c5.6,6.8,11.2,13.61,16.8,20.41c11.02,13.39,22.74,27.3,38.84,33.75"/>
<path class="st0" d="M743.19,395.58c8.7,2.49,18.48,0.84,25.89-4.35"/>
<path class="st0" d="M724.69,442.09c-0.21-1,1.45-1.04,2.34-0.55c19.69,10.99,24.47,37.37,40.3,53.42c1.66-3.57,3.33-7.13,4.99-10.7
	c9.67-20.74,20.22-42.52,39.25-55.22"/>
<path class="st0" d="M750.66,449.04c10.03,0.68,20.26-2.37,28.28-8.43"/>
</svg>
